/* XPM */
static char * E:\Dropbox\Avalon Life\Avalon Life Corperate Design\Pura\WALLET DESIGN\pixmaps\dash16_xpm[] = {
"16 16 59 1",
" 	g #FFFFFF",
".	g #FDFDFD",
"+	g #DFDFDF",
"@	g #DADADA",
"#	g #E5E5E5",
"$	g #E8E8E8",
"%	g #E4E4E4",
"&	g #D9D9D9",
"*	g #FCFCFC",
"=	g #EFEFEF",
"-	g #CECECE",
";	g #DEDEDE",
">	g #F6F6F6",
",	g #F7F7F7",
"'	g #EEEEEE",
")	g #F0F0F0",
"!	g #CBCBCB",
"~	g #FBFBFB",
"{	g #D3D3D3",
"]	g #F4F4F4",
"^	g #EDEDED",
"/	g #F8F8F8",
"(	g #2E2E2E",
"_	g #0B0B0B",
":	g #111111",
"<	g #0A0A0A",
"[	g #464646",
"}	g #E7E7E7",
"|	g #FAFAFA",
"1	g #A7A7A7",
"2	g #9F9F9F",
"3	g #8F8F8F",
"4	g #080808",
"5	g #232323",
"6	g #242424",
"7	g #050505",
"8	g #212121",
"9	g #000000",
"0	g #C6C6C6",
"a	g #E9E9E9",
"b	g #A3A3A3",
"c	g #616161",
"d	g #858585",
"e	g #9E9E9E",
"f	g #BFBFBF",
"g	g #6C6C6C",
"h	g #363636",
"i	g #6B6B6B",
"j	g #D0D0D0",
"k	g #272727",
"l	g #454545",
"m	g #474747",
"n	g #A2A2A2",
"o	g #BBBBBB",
"p	g #D1D1D1",
"q	g #3F3F3F",
"r	g #ECECEC",
"s	g #F5F5F5",
"t	g #CDCDCD",
"   .+@#$$%&+*   ",
"  =-;>    ,;-'  ",
" )!'        )!) ",
"~{]  ,^/>/   ]{~",
"%#   '(_:<[}  #%",
"+~ || !12345| ~+",
"}  %6781  &90  }",
"a  .bcd1  e9&  a",
"a     fg[h9i   a",
"}    j9klmn    }",
"+~   o9p      ~+",
"%%   oqr      %%",
"~{]  ,       s{~",
" )!=        =!) ",
"  't;,    ,;-'  ",
"   *+&%}}%&+*   "};
