/* XPM */
static char * E:\Dropbox\Avalon Life\Avalon Life Corperate Design\Pura\WALLET DESIGN\pixmaps\dash64_xpm[] = {
"64 64 160 2",
"  	g #FFFFFF",
". 	g #F5F5F5",
"+ 	g #E4E4E4",
"@ 	g #C9C9C9",
"# 	g #C5C5C5",
"$ 	g #B8B8B8",
"% 	g #9E9E9E",
"& 	g #959595",
"* 	g #979797",
"= 	g #969696",
"- 	g #C8C8C8",
"; 	g #ECECEC",
"> 	g #BDBDBD",
", 	g #AFAFAF",
"' 	g #C2C2C2",
") 	g #CECECE",
"! 	g #EDEDED",
"~ 	g #F2F2F2",
"{ 	g #C3C3C3",
"] 	g #C7C7C7",
"^ 	g #EBEBEB",
"/ 	g #CFCFCF",
"( 	g #B4B4B4",
"_ 	g #BFBFBF",
": 	g #DDDDDD",
"< 	g #DEDEDE",
"[ 	g #B3B3B3",
"} 	g #A9A9A9",
"| 	g #D6D6D6",
"1 	g #FEFEFE",
"2 	g #A4A4A4",
"3 	g #B2B2B2",
"4 	g #E5E5E5",
"5 	g #E6E6E6",
"6 	g #D4D4D4",
"7 	g #FBFBFB",
"8 	g #A1A1A1",
"9 	g #D9D9D9",
"0 	g #DBDBDB",
"a 	g #A2A2A2",
"b 	g #AEAEAE",
"c 	g #DCDCDC",
"d 	g #9D9D9D",
"e 	g #CCCCCC",
"f 	g #9A9A9A",
"g 	g #CBCBCB",
"h 	g #BEBEBE",
"i 	g #F6F6F6",
"j 	g #F7F7F7",
"k 	g #BCBCBC",
"l 	g #B9B9B9",
"m 	g #A3A3A3",
"n 	g #999999",
"o 	g #F8F8F8",
"p 	g #E2E2E2",
"q 	g #B6B6B6",
"r 	g #B5B5B5",
"s 	g #A7A7A7",
"t 	g #A8A8A8",
"u 	g #989898",
"v 	g #5B5B5B",
"w 	g #606060",
"x 	g #6A6A6A",
"y 	g #828282",
"z 	g #D1D1D1",
"A 	g #6F6F6F",
"B 	g #000000",
"C 	g #323232",
"D 	g #8A8A8A",
"E 	g #F1F1F1",
"F 	g #ACACAC",
"G 	g #E9E9E9",
"H 	g #1B1B1B",
"I 	g #A6A6A6",
"J 	g #EAEAEA",
"K 	g #ABABAB",
"L 	g #7C7C7C",
"M 	g #373737",
"N 	g #949494",
"O 	g #EEEEEE",
"P 	g #DADADA",
"Q 	g #CDCDCD",
"R 	g #565656",
"S 	g #CACACA",
"T 	g #414141",
"U 	g #666666",
"V 	g #C4C4C4",
"W 	g #DFDFDF",
"X 	g #0E0E0E",
"Y 	g #E1E1E1",
"Z 	g #FAFAFA",
"` 	g #9F9F9F",
" .	g #AAAAAA",
"..	g #D8D8D8",
"+.	g #838383",
"@.	g #010101",
"#.	g #535353",
"$.	g #E8E8E8",
"%.	g #343434",
"&.	g #9C9C9C",
"*.	g #E3E3E3",
"=.	g #D5D5D5",
"-.	g #1F1F1F",
";.	g #626262",
">.	g #8C8C8C",
",.	g #C6C6C6",
"'.	g #5F5F5F",
").	g #4F4F4F",
"!.	g #676767",
"~.	g #454545",
"{.	g #545454",
"].	g #E7E7E7",
"^.	g #919191",
"/.	g #0D0D0D",
"(.	g #111111",
"_.	g #040404",
":.	g #EFEFEF",
"<.	g #F3F3F3",
"[.	g #9B9B9B",
"}.	g #0F0F0F",
"|.	g #D0D0D0",
"1.	g #888888",
"2.	g #5E5E5E",
"3.	g #1D1D1D",
"4.	g #2E2E2E",
"5.	g #FCFCFC",
"6.	g #585858",
"7.	g #0C0C0C",
"8.	g #4B4B4B",
"9.	g #1C1C1C",
"0.	g #575757",
"a.	g #6B6B6B",
"b.	g #030303",
"c.	g #2B2B2B",
"d.	g #717171",
"e.	g #646464",
"f.	g #2F2F2F",
"g.	g #A0A0A0",
"h.	g #696969",
"i.	g #E0E0E0",
"j.	g #484848",
"k.	g #474747",
"l.	g #424242",
"m.	g #272727",
"n.	g #5C5C5C",
"o.	g #2A2A2A",
"p.	g #7A7A7A",
"q.	g #303030",
"r.	g #898989",
"s.	g #FDFDFD",
"t.	g #F9F9F9",
"u.	g #A5A5A5",
"v.	g #BABABA",
"w.	g #B7B7B7",
"x.	g #C0C0C0",
"y.	g #C1C1C1",
"z.	g #D3D3D3",
"A.	g #D2D2D2",
"B.	g #B0B0B0",
"C.	g #F4F4F4",
"                                                . + @ # $ % & * * = % $ # - + .                                                 ",
"                                          ; - > , ' ' ) + ! ~ . . ~ ! + ) ' { , > ] ^                                           ",
"                                      / ( , _ : .                             . < _ , [ )                                       ",
"                                  - } [ | 1                                         1 | [ } ]                                   ",
"                              | 2 3 4                                                     5 3 2 6                               ",
"                          7 , 8 9                                                             0 a b 7                           ",
"                        c d >                                                                     _ d c                         ",
"                      e f c                                                                         : f g                       ",
"                    h % i                                                                             j % k                     ",
"                  l m                                                                                     2 $                   ",
"                h m                                                                                         2 k                 ",
"              / 8                                                                                             a )               ",
"            + n j                                                                                             o f p             ",
"          o % +                                                                                                 5 % o           ",
"          q #                                                                                                     ] r           ",
"        : s                                                                                                         t c         ",
"        } p                                   u v w w w w w w w w w w w w x y 2 9                                   + t         ",
"      z (                                     A B B B B B B B B B B B B B B B B B C D E                               r )       ",
"      F G                                     5 B B B B B B B B B B B B B B B B B B B H I                             J K 1     ",
"    | (                                         f B B B B B B B B B B B B B B B B B B B B L                             r 6     ",
"    [ 0                                           3 M B B B B B B B B B B B B B B B B B B B N                           : 3     ",
"  O r                                                 P @ Q Q Q Q Q Q / ) k = R B B B B B B B p                           ( !   ",
"  S {                                                                           6 T B B B B B U                           V -   ",
"  h W                                                                               M B B B B X j                         Y >   ",
"j 3 Z                         z `  . . . . . . . .s K 0                             ..B B B B B _                         7 3 i ",
"+ V                           +.B B B B B B B B B B B @.#.$.                          %.B B B B &.                          # *.",
"@ #                           =.B B B B B B B B B B B B B -.^                         ;.B B B B >.                          # @ ",
",./                             '.B B B B B B B B B B B B B ).                        !.B B B B D                           z ,.",
"l 4                             7 ~.B B B B B B B B B B B B B |                       {.B B B B *                           ].r ",
"% O                                 ^.M X /.(.(.(.(.(.(.(.X _.K                       H B B B B b                           :.f ",
"& <.                                    :.; :.:.:.:.:.:.:.O J i                     s B B B B B *.                          . * ",
"= .                                                                               9 (.B B B B M                             i [.",
"* .                                                                           7 % }.B B B B B s                             i [.",
"& <.                                                |.&.f % % % % % % ` &.1.2.3.B B B B B B 4.                              . * ",
"d O                                             5.6.B B B B B B B B B B B B B B B B B B B 7.Y                               :.n ",
"$ 5                                             8.B B B B B B B B B B B B B B B B B B B 9.z                                 ].( ",
",.)                                           l B B B B B B B B B B B B B B B B B B B 0.$.                                  z ,.",
"@ #                                           a.B B B B B B B B B B B B B B B b.c.d.g                                       V - ",
"+ V                                           e.B B B B f.g.d &.&.&.&.&.[.2 $ <                                             # p ",
"j 3 7                                         h.B B B B {.                                                                7 3 i ",
"  > i.                                        h.B B B B j.                                                                p k   ",
"  @ {                                         h.B B B B k.                                                                V -   ",
"  O (                                         h.B B B B l.                                                                r !   ",
"    3 c                                       h.B B B B ).                                                              < 3     ",
"    =.r                                       h.B B B B &.                                                              q 6     ",
"    1 F J                                     h.B B B m.5.                                                            ; K 1     ",
"      / r                                     n.B B o.*.                                                              r )       ",
"        t *.                                  p.q.r.Z                                                               4 s 1       ",
"        c s                                   s.                                                                    t 0         ",
"          r ]                                                                                                     - [           ",
"          o % ].                                                                                                $.% j           ",
"            p f o                                                                                             t.[.i.            ",
"              ) 8                                                                                             a e               ",
"                k u.                                                                                        s v.                ",
"                  $ 2                                                                                     s w.                  ",
"                    k % o                                                                             t.` v.                    ",
"                      S [.<                                                                         W [.-                       ",
"                        P [.x.                                                                    y.[.9                         ",
"                          Z F a :                                                             < m F t.                          ",
"                              z.2 [ ].                                                    $.( 2 A.                              ",
"                                  # } ( 9                                             9 r } #                                   ",
"                                      e [ B.x.W j                             j W x.B.[ g 1                                     ",
"                                          J # k , V ' z 5 O C.i i . O ].A.{ V , k # J                                           ",
"                                                <.p - # [ f u f [.* n 3 # ] Y ~                                                 "};
