/* XPM */
static char * E:\Dropbox\Avalon Life\Avalon Life Corperate Design\Pura\WALLET DESIGN\pixmaps\dash32_xpm[] = {
"32 32 105 2",
"  	g #FFFFFF",
". 	g #EAEAEA",
"+ 	g #D5D5D5",
"@ 	g #D4D4D4",
"# 	g #CFCFCF",
"$ 	g #CECECE",
"% 	g #CACACA",
"& 	g #E9E9E9",
"* 	g #DFDFDF",
"= 	g #C5C5C5",
"- 	g #D9D9D9",
"; 	g #F0F0F0",
"> 	g #F9F9F9",
", 	g #F5F5F5",
"' 	g #C0C0C0",
") 	g #C2C2C2",
"! 	g #E6E6E6",
"~ 	g #F4F4F4",
"{ 	g #E3E3E3",
"] 	g #B7B7B7",
"^ 	g #E2E2E2",
"/ 	g #DEDEDE",
"( 	g #EFEFEF",
"_ 	g #DDDDDD",
": 	g #F7F7F7",
"< 	g #F8F8F8",
"[ 	g #E5E5E5",
"} 	g #BABABA",
"| 	g #C8C8C8",
"1 	g #FDFDFD",
"2 	g #C9C9C9",
"3 	g #BEBEBE",
"4 	g #1B1B1B",
"5 	g #353535",
"6 	g #383838",
"7 	g #373737",
"8 	g #4D4D4D",
"9 	g #7E7E7E",
"0 	g #D8D8D8",
"a 	g #ECECEC",
"b 	g #141414",
"c 	g #000000",
"d 	g #010101",
"e 	g #898989",
"f 	g #EDEDED",
"g 	g #FAFAFA",
"h 	g #838383",
"i 	g #656565",
"j 	g #696969",
"k 	g #6C6C6C",
"l 	g #3F3F3F",
"m 	g #A3A3A3",
"n 	g #BDBDBD",
"o 	g #0E0E0E",
"p 	g #161616",
"q 	g #D6D6D6",
"r 	g #F1F1F1",
"s 	g #CDCDCD",
"t 	g #454545",
"u 	g #595959",
"v 	g #545454",
"w 	g #666666",
"x 	g #878787",
"y 	g #F2F2F2",
"z 	g #D1D1D1",
"A 	g #FBFBFB",
"B 	g #E4E4E4",
"C 	g #C1C1C1",
"D 	g #BFBFBF",
"E 	g #D2D2D2",
"F 	g #3B3B3B",
"G 	g #090909",
"H 	g #0F0F0F",
"I 	g #111111",
"J 	g #5E5E5E",
"K 	g #A6A6A6",
"L 	g #EBEBEB",
"M 	g #2F2F2F",
"N 	g #080808",
"O 	g #F3F3F3",
"P 	g #CBCBCB",
"Q 	g #D3D3D3",
"R 	g #C7C7C7",
"S 	g #C6C6C6",
"T 	g #9A9A9A",
"U 	g #797979",
"V 	g #464646",
"W 	g #C3C3C3",
"X 	g #2D2D2D",
"Y 	g #8D8D8D",
"Z 	g #D0D0D0",
"` 	g #A5A5A5",
" .	g #808080",
"..	g #C4C4C4",
"+.	g #DCDCDC",
"@.	g #AFAFAF",
"#.	g #AEAEAE",
"$.	g #B0B0B0",
"%.	g #989898",
"&.	g #A9A9A9",
"*.	g #303030",
"=.	g #DADADA",
"-.	g #E7E7E7",
";.	g #CCCCCC",
">.	g #E8E8E8",
"                    . + @ # $ % % $ # @ + &                     ",
"                * = % - ; >         > ; - % = *                 ",
"            , ' ) !                         ! ) ' ~             ",
"          { ] -                                 - ] ^           ",
"        / ] (                                     ; ] _         ",
"      ! ] :                                         < ] [       ",
"    , } ~                                             ~ } ~     ",
"    | ^               1                                 ^ |     ",
"  ! 2                 3 4 5 6 6 6 7 7 8 9 0               2 !   ",
"  2 a                 & b c c c c c c c c d e             f |   ",
"a $                     g h i j j k k l c c c m             $ a ",
"- *                                     n o c p g           * 0 ",
"q r           s t u u u v w $             x c c s           y q ",
"z A           B c c c c c c c C           D c c ]           A z ",
"$               E F G H I I c J           K c c =             $ ",
"%                   L f ,               A M c N O             P ",
"%                         { Q Q R 2 S T M c c U               P ",
"$                       k c c c c c c c c c V 1               $ ",
"z A                   W c c c c c c c c X Y                 A Z ",
"q r                   ` c c  .Z S ....+.                    y q ",
"- *                   @.c c #.                              * 0 ",
"a $                   $.c c %.                              $ a ",
"  2 f                 &.c c *                             f 2   ",
"  ! 2                 &.*.3                               2 [   ",
"    | ^               >                                 ^ R     ",
"    ~ } ~                                             , } ~     ",
"      [ ] <                                         < ] B       ",
"        _ ] ;                                     ; ] _         ",
"          ^ ] =.                                =.] ^           ",
"            O ' W -.                        -.W ' O             ",
"                * = P - ; g         g ; - % = *                 ",
"                    & + @ # $ ;.P $ # Q + >.                    "};
